<?xml version="1.0" standalone="no"?>
<!DOCTYPE svg PUBLIC "-//W3C//DTD SVG 20010904//EN"
 "http://www.w3.org/TR/2001/REC-SVG-20010904/DTD/svg10.dtd">
<svg version="1.0" xmlns="http://www.w3.org/2000/svg"
 width="84.000000pt" height="84.000000pt" viewBox="0 0 84.000000 84.000000"
 preserveAspectRatio="xMidYMid meet">
<metadata>
Created by potrace 1.11, written by Peter Selinger 2001-2013
</metadata>
<g transform="translate(0.000000,84.000000) scale(0.100000,-0.100000)"
fill="#000000" stroke="none">
<path d="M317 803 c-3 -5 -4 -21 -3 -37 l2 -29 97 -1 c54 -1 103 1 110 4 7 3
13 20 13 38 l2 32 -108 0 c-60 0 -111 -3 -113 -7z"/>
<path d="M332 685 c-89 -25 -173 -101 -213 -191 -52 -116 -26 -267 60 -355 79
-79 154 -108 264 -103 128 5 230 74 284 190 23 49 28 73 28 140 0 72 -4 88
-33 144 l-32 63 20 22 c25 27 25 33 -1 61 l-21 23 -25 -27 -25 -27 -40 24
c-80 46 -181 60 -266 36z m215 -92 c41 -19 100 -84 120 -132 22 -52 20 -147
-4 -201 -92 -204 -385 -204 -476 0 -25 54 -27 148 -4 201 59 140 222 200 364
132z"/>
<path d="M390 441 c0 -116 4 -124 53 -113 17 4 19 14 19 107 0 120 1 115 -37
115 l-35 0 0 -109z"/>
</g>
</svg>
